<?xml version="1.0" encoding="utf-8"?>
<!-- Generator: Adobe Illustrator 24.0.0, SVG Export Plug-In . SVG Version: 6.00 Build 0)  -->
<svg version="1.1" id="Capa_1" xmlns="http://www.w3.org/2000/svg" xmlns:xlink="http://www.w3.org/1999/xlink" x="0px" y="0px"
	 viewBox="0 0 500 500" style="enable-background:new 0 0 500 500;" xml:space="preserve">
<style type="text/css">
	.st0{fill:#54565A;}
	.st1{fill:#E0DF00;}
</style>
<g>
	<path class="st0" d="M232.89,181.16h-35.97c-9.08,0-16.43-7.36-16.43-16.43v-35.97c0-9.08,7.36-16.43,16.43-16.43h35.97
		c9.08,0,16.43,7.36,16.43,16.43v35.97C249.33,173.8,241.97,181.16,232.89,181.16z"/>
	<path class="st1" d="M232.89,386.81h-35.97c-9.08,0-16.43-7.36-16.43-16.43V231.58c0-9.08,7.36-16.43,16.43-16.43h35.97
		c9.08,0,16.43,7.36,16.43,16.43v138.79C249.33,379.45,241.97,386.81,232.89,386.81z"/>
	<path class="st1" d="M353.02,27.36v341.58c0,9.87-8,17.86-17.86,17.86h-33.11c-9.87,0-17.86-8-17.86-17.86V96.2
		c0-9.87-8-17.86-17.86-17.86H96.4c-9.87,0-17.86-8-17.86-17.86V27.36c0-9.87,8-17.86,17.86-17.86h238.76
		C345.02,9.5,353.02,17.5,353.02,27.36z"/>
	<path class="st1" d="M249.33,439.52v33.11c0,9.87-8,17.86-17.86,17.86H96.4c-9.87,0-17.86-8-17.86-17.86V130.19
		c0-9.87,8-17.86,17.86-17.86h33.11c9.87,0,17.86,8,17.86,17.86V403.8c0,9.87,8,17.86,17.86,17.86h66.23
		C241.33,421.66,249.33,429.66,249.33,439.52z"/>
	<path class="st0" d="M405.03,490.39H300.22c-9.08,0-16.43-7.36-16.43-16.43v-35.97c0-9.08,7.36-16.43,16.43-16.43h104.81
		c9.08,0,16.43,7.36,16.43,16.43v35.97C421.46,483.03,414.11,490.39,405.03,490.39z"/>
</g>
</svg>
