<?xml version="1.0" encoding="utf-8"?>
<!-- Generator: Adobe Illustrator 24.0.0, SVG Export Plug-In . SVG Version: 6.00 Build 0)  -->
<svg version="1.1" id="Capa_1" xmlns="http://www.w3.org/2000/svg" xmlns:xlink="http://www.w3.org/1999/xlink" x="0px" y="0px"
	 viewBox="0 0 253.84 100" style="enable-background:new 0 0 253.84 100;" xml:space="preserve">
<style type="text/css">
	.st0{fill:#54565A;stroke:#54565A;stroke-width:0.8333;stroke-miterlimit:10;}
	.st1{fill:#54565A;}
	.st2{fill:#E0DF00;}
</style>
<g>
	<g>
		<path class="st0" d="M95.68,31.67v1.14H85.57v-18.5h1.35v17.36H95.68z"/>
		<path class="st0" d="M114.11,23.55c0,1.43-0.21,2.73-0.64,3.89c-0.43,1.16-1.03,2.16-1.8,2.98c-0.78,0.82-1.71,1.46-2.79,1.91
			c-1.09,0.45-2.28,0.67-3.59,0.67c-1.31,0-2.5-0.22-3.58-0.67c-1.08-0.45-2.01-1.09-2.78-1.91c-0.78-0.82-1.38-1.82-1.8-2.98
			c-0.43-1.16-0.64-2.46-0.64-3.89c0-1.42,0.21-2.71,0.64-3.88c0.43-1.16,1.03-2.16,1.8-2.98c0.78-0.82,1.7-1.46,2.78-1.91
			c1.08-0.45,2.27-0.68,3.58-0.68c1.31,0,2.5,0.23,3.59,0.67c1.09,0.45,2.02,1.09,2.79,1.91c0.78,0.83,1.38,1.82,1.8,2.99
			C113.9,20.84,114.11,22.13,114.11,23.55z M112.73,23.55c0-1.29-0.18-2.45-0.54-3.48c-0.36-1.03-0.86-1.9-1.52-2.62
			c-0.65-0.71-1.44-1.26-2.36-1.64c-0.91-0.38-1.93-0.57-3.03-0.57c-1.1,0-2.11,0.19-3.02,0.57c-0.91,0.38-1.7,0.93-2.36,1.64
			c-0.66,0.71-1.17,1.59-1.53,2.62c-0.36,1.03-0.54,2.19-0.54,3.48c0,1.3,0.18,2.46,0.54,3.48c0.36,1.02,0.87,1.89,1.53,2.61
			c0.66,0.71,1.45,1.26,2.36,1.63c0.91,0.37,1.92,0.56,3.02,0.56c1.11,0,2.12-0.19,3.03-0.56c0.91-0.37,1.7-0.92,2.36-1.63
			c0.65-0.71,1.16-1.59,1.52-2.61C112.55,26.01,112.73,24.85,112.73,23.55z"/>
		<path class="st0" d="M132.66,14.31v18.5h-0.63c-0.11,0-0.21-0.02-0.28-0.06c-0.07-0.04-0.14-0.11-0.21-0.2l-12.02-16.06
			c0.03,0.26,0.04,0.51,0.04,0.75v15.57h-1.18v-18.5h0.67c0.12,0,0.21,0.02,0.28,0.05c0.07,0.03,0.14,0.1,0.21,0.2l11.99,16.02
			c-0.03-0.26-0.04-0.51-0.04-0.75V14.31H132.66L132.66,14.31z"/>
		<path class="st0" d="M143.68,26.64c0,1.04-0.12,1.95-0.38,2.75s-0.62,1.46-1.1,2c-0.48,0.54-1.06,0.95-1.74,1.22
			c-0.68,0.27-1.45,0.41-2.3,0.41c-0.39,0-0.79-0.03-1.19-0.09c-0.4-0.06-0.82-0.16-1.24-0.29c0.01-0.12,0.02-0.24,0.03-0.37
			c0.01-0.12,0.03-0.24,0.05-0.37c0.02-0.08,0.05-0.15,0.1-0.21c0.05-0.06,0.13-0.09,0.25-0.09c0.08,0,0.17,0.02,0.28,0.05
			c0.11,0.03,0.24,0.06,0.39,0.1c0.15,0.04,0.32,0.07,0.52,0.1c0.2,0.03,0.43,0.05,0.69,0.05c0.66,0,1.26-0.11,1.79-0.31
			c0.53-0.21,0.98-0.53,1.36-0.96c0.37-0.43,0.66-0.98,0.86-1.63c0.2-0.66,0.29-1.43,0.29-2.32V14.31h1.33L143.68,26.64
			L143.68,26.64z"/>
		<path class="st0" d="M162.81,32.81h-1.03c-0.12,0-0.22-0.03-0.3-0.1s-0.14-0.15-0.18-0.25l-2.17-5.37h-9.09l-2.17,5.37
			c-0.04,0.1-0.1,0.18-0.18,0.25c-0.09,0.07-0.19,0.11-0.31,0.11h-1.02l7.57-18.5h1.32L162.81,32.81z M158.71,26.09l-3.77-9.35
			c-0.13-0.3-0.26-0.67-0.38-1.1c-0.05,0.21-0.11,0.41-0.17,0.59c-0.06,0.19-0.12,0.36-0.2,0.52l-3.77,9.33L158.71,26.09
			L158.71,26.09z"/>
		<path class="st0" d="M86.92,58.96h-1.35v-18.5h1.35V58.96z"/>
		<path class="st0" d="M106.66,40.45v18.5h-0.63c-0.11,0-0.21-0.02-0.28-0.06c-0.07-0.04-0.14-0.11-0.21-0.2L93.52,42.64
			c0.03,0.26,0.04,0.51,0.04,0.75v15.57h-1.18v-18.5h0.67c0.12,0,0.21,0.02,0.28,0.05c0.07,0.03,0.14,0.1,0.21,0.2l11.99,16.02
			c-0.03-0.26-0.04-0.51-0.04-0.75V40.45L106.66,40.45L106.66,40.45z"/>
		<path class="st0" d="M130.41,40.45v18.5h-1.16V43.19c0-0.23,0.01-0.46,0.04-0.72L122,55.4c-0.12,0.23-0.3,0.34-0.52,0.34h-0.21
			c-0.23,0-0.4-0.11-0.52-0.34l-7.48-12.96c0.03,0.26,0.04,0.51,0.04,0.75v15.77h-1.18v-18.5h0.93c0.12,0,0.22,0.01,0.29,0.04
			s0.14,0.1,0.21,0.21l7.47,12.87c0.13,0.25,0.24,0.5,0.34,0.79c0.05-0.14,0.11-0.28,0.17-0.41c0.06-0.14,0.12-0.26,0.2-0.39
			l7.26-12.85c0.07-0.11,0.14-0.18,0.21-0.21c0.07-0.03,0.17-0.04,0.29-0.04H130.41L130.41,40.45z"/>
		<path class="st0" d="M152.31,49.7c0,1.43-0.21,2.73-0.64,3.89c-0.43,1.16-1.03,2.16-1.8,2.98c-0.78,0.82-1.71,1.46-2.79,1.91
			s-2.28,0.67-3.59,0.67s-2.5-0.22-3.58-0.67c-1.08-0.45-2.01-1.09-2.78-1.91c-0.78-0.82-1.38-1.82-1.8-2.98
			c-0.43-1.16-0.64-2.46-0.64-3.89c0-1.42,0.21-2.71,0.64-3.88s1.03-2.16,1.8-2.98c0.78-0.82,1.7-1.46,2.78-1.91
			c1.08-0.45,2.27-0.68,3.58-0.68s2.5,0.23,3.59,0.67c1.09,0.45,2.02,1.09,2.79,1.91c0.78,0.83,1.38,1.82,1.8,2.99
			C152.09,46.99,152.31,48.28,152.31,49.7z M150.92,49.7c0-1.29-0.18-2.45-0.54-3.48c-0.36-1.03-0.86-1.9-1.52-2.62
			c-0.65-0.71-1.44-1.26-2.36-1.64c-0.91-0.38-1.93-0.57-3.03-0.57c-1.1,0-2.11,0.19-3.02,0.57c-0.91,0.38-1.7,0.93-2.36,1.64
			c-0.66,0.71-1.17,1.59-1.53,2.62c-0.36,1.03-0.54,2.19-0.54,3.48c0,1.3,0.18,2.46,0.54,3.48c0.36,1.02,0.87,1.89,1.53,2.61
			c0.66,0.71,1.45,1.26,2.36,1.63c0.91,0.37,1.92,0.56,3.02,0.56c1.11,0,2.12-0.19,3.03-0.56c0.91-0.37,1.7-0.92,2.36-1.63
			c0.65-0.71,1.16-1.59,1.52-2.61S150.92,51,150.92,49.7z"/>
		<path class="st0" d="M161.89,40.45c1.05,0,1.97,0.11,2.75,0.31c0.78,0.21,1.42,0.52,1.92,0.92c0.5,0.41,0.88,0.9,1.12,1.48
			c0.24,0.59,0.37,1.25,0.37,1.99c0,0.49-0.09,0.96-0.25,1.41c-0.17,0.45-0.41,0.87-0.73,1.25c-0.32,0.38-0.71,0.72-1.18,1
			c-0.46,0.29-1,0.5-1.6,0.65c1.46,0.21,2.57,0.69,3.35,1.45c0.78,0.75,1.17,1.75,1.17,2.98c0,0.79-0.14,1.49-0.42,2.12
			c-0.28,0.63-0.68,1.16-1.21,1.59c-0.53,0.44-1.19,0.77-1.96,1c-0.78,0.23-1.66,0.35-2.64,0.35h-6.01v-18.5H161.89L161.89,40.45z
			 M157.92,41.52v7.6h4c0.86,0,1.59-0.11,2.19-0.33c0.61-0.22,1.1-0.5,1.49-0.86c0.39-0.36,0.67-0.76,0.86-1.21s0.27-0.92,0.27-1.4
			c0-1.25-0.39-2.19-1.18-2.83c-0.79-0.64-2.01-0.96-3.66-0.96H157.92L157.92,41.52z M162.56,57.89c1.62,0,2.85-0.35,3.68-1.05
			c0.83-0.7,1.25-1.69,1.25-2.96c0-0.58-0.11-1.11-0.33-1.57s-0.54-0.86-0.96-1.19s-0.93-0.58-1.54-0.75
			c-0.61-0.18-1.3-0.26-2.08-0.26h-4.66v7.79L162.56,57.89L162.56,57.89z"/>
		<path class="st0" d="M174.44,58.96h-1.35v-18.5h1.35V58.96z"/>
		<path class="st0" d="M190.01,57.82v1.14h-10.11v-18.5h1.35v17.36L190.01,57.82L190.01,57.82z"/>
		<path class="st0" d="M194.49,58.96h-1.35v-18.5h1.35V58.96z"/>
		<path class="st0" d="M214.02,58.96h-1.03c-0.12,0-0.22-0.03-0.3-0.1c-0.08-0.07-0.14-0.15-0.18-0.25l-2.17-5.37h-9.09l-2.17,5.37
			c-0.04,0.1-0.1,0.18-0.18,0.25s-0.19,0.11-0.31,0.11h-1.02l7.57-18.5h1.32L214.02,58.96z M209.93,52.24l-3.77-9.35
			c-0.13-0.3-0.26-0.67-0.38-1.1c-0.05,0.21-0.11,0.41-0.17,0.59c-0.06,0.19-0.12,0.36-0.2,0.52l-3.77,9.33L209.93,52.24
			L209.93,52.24z"/>
		<path class="st0" d="M229.85,58.96h-1.15c-0.15,0-0.27-0.02-0.37-0.07c-0.1-0.05-0.2-0.14-0.28-0.27l-5.94-7.51
			c-0.07-0.1-0.14-0.18-0.21-0.25c-0.07-0.07-0.16-0.12-0.25-0.16c-0.09-0.04-0.2-0.07-0.33-0.09c-0.12-0.02-0.28-0.03-0.46-0.03
			h-2.42v8.37h-1.35v-18.5h4.73c2.13,0,3.72,0.41,4.78,1.23c1.06,0.82,1.59,2.03,1.59,3.63c0,0.71-0.12,1.35-0.37,1.93
			c-0.25,0.59-0.59,1.1-1.05,1.53c-0.46,0.44-1.01,0.8-1.66,1.08c-0.65,0.28-1.38,0.46-2.19,0.56c0.21,0.13,0.4,0.3,0.56,0.52
			L229.85,58.96z M221.64,49.59c0.82,0,1.55-0.1,2.2-0.29c0.65-0.2,1.2-0.48,1.65-0.84c0.45-0.37,0.79-0.8,1.03-1.32
			c0.23-0.52,0.35-1.09,0.35-1.74c0-1.32-0.43-2.29-1.29-2.93c-0.86-0.64-2.11-0.95-3.76-0.95h-3.39v8.08L221.64,49.59L221.64,49.59
			z"/>
		<path class="st0" d="M234.31,58.96h-1.35v-18.5h1.35V58.96z"/>
		<path class="st0" d="M253.84,58.96h-1.03c-0.12,0-0.22-0.03-0.3-0.1c-0.08-0.07-0.14-0.15-0.18-0.25l-2.17-5.37h-9.09l-2.17,5.37
			c-0.04,0.1-0.1,0.18-0.18,0.25c-0.09,0.07-0.19,0.11-0.31,0.11h-1.02l7.57-18.5h1.32L253.84,58.96z M249.75,52.24l-3.77-9.35
			c-0.13-0.3-0.26-0.67-0.38-1.1c-0.05,0.21-0.11,0.41-0.17,0.59c-0.06,0.19-0.12,0.36-0.2,0.52l-3.77,9.33L249.75,52.24
			L249.75,52.24z"/>
		<path class="st0" d="M101.16,75.85c0,1.43-0.21,2.71-0.64,3.86c-0.43,1.14-1.03,2.11-1.8,2.92c-0.78,0.8-1.71,1.42-2.79,1.84
			s-2.28,0.64-3.59,0.64h-6.76v-18.5h6.76c1.31,0,2.5,0.21,3.59,0.64s2.02,1.04,2.79,1.84c0.78,0.8,1.38,1.77,1.8,2.92
			C100.95,73.15,101.16,74.43,101.16,75.85z M99.77,75.85c0-1.29-0.18-2.44-0.54-3.45c-0.36-1.01-0.86-1.87-1.52-2.56
			c-0.65-0.7-1.44-1.23-2.36-1.59c-0.91-0.37-1.93-0.55-3.03-0.55h-5.41v16.33h5.41c1.11,0,2.12-0.18,3.03-0.55
			c0.92-0.37,1.7-0.9,2.36-1.59c0.65-0.7,1.16-1.55,1.52-2.56C99.59,78.3,99.77,77.15,99.77,75.85z"/>
		<path class="st0" d="M116.56,83.99l-0.03,1.11h-11.09v-18.5h11.09v1.11h-9.74v7.48h8.11v1.09h-8.11V84L116.56,83.99L116.56,83.99z
			"/>
		<path class="st0" d="M130.72,83.97v1.14h-10.11V66.6h1.35v17.36H130.72z"/>
		<path class="st0" d="M157.37,89.19h-1.12c-0.34,0-0.62-0.11-0.84-0.33l-3.95-4.26c-0.55,0.23-1.13,0.4-1.74,0.52
			c-0.61,0.12-1.25,0.18-1.93,0.18c-1.31,0-2.5-0.22-3.58-0.67c-1.08-0.45-2.01-1.09-2.78-1.91c-0.78-0.82-1.38-1.82-1.8-2.98
			c-0.43-1.16-0.64-2.46-0.64-3.89c0-1.42,0.21-2.71,0.64-3.88c0.43-1.16,1.03-2.16,1.8-2.98c0.78-0.82,1.7-1.46,2.78-1.91
			c1.08-0.45,2.27-0.68,3.58-0.68s2.5,0.23,3.59,0.67c1.09,0.45,2.02,1.09,2.79,1.91c0.78,0.83,1.38,1.82,1.8,2.99
			c0.43,1.16,0.64,2.46,0.64,3.88c0,0.93-0.09,1.81-0.28,2.64c-0.19,0.82-0.46,1.58-0.8,2.28c-0.35,0.69-0.77,1.31-1.27,1.86
			c-0.5,0.55-1.07,1.02-1.7,1.41L157.37,89.19z M140.33,75.85c0,1.3,0.18,2.46,0.54,3.48c0.36,1.02,0.87,1.89,1.53,2.61
			c0.66,0.71,1.45,1.26,2.36,1.63c0.91,0.37,1.92,0.56,3.02,0.56c1.11,0,2.12-0.19,3.03-0.56c0.91-0.37,1.7-0.92,2.36-1.63
			c0.65-0.71,1.16-1.59,1.52-2.61c0.36-1.02,0.54-2.19,0.54-3.48c0-1.29-0.18-2.45-0.54-3.48c-0.36-1.03-0.86-1.9-1.52-2.62
			c-0.65-0.71-1.44-1.26-2.36-1.64c-0.91-0.38-1.93-0.57-3.03-0.57c-1.1,0-2.11,0.19-3.02,0.57c-0.91,0.38-1.7,0.93-2.36,1.64
			c-0.66,0.71-1.17,1.59-1.53,2.62C140.51,73.4,140.33,74.56,140.33,75.85z"/>
		<path class="st0" d="M167.64,84.15c0.89,0,1.68-0.16,2.39-0.46c0.7-0.31,1.3-0.74,1.78-1.29c0.49-0.55,0.86-1.2,1.12-1.94
			c0.26-0.75,0.39-1.55,0.39-2.41V66.6h1.33v11.44c0,1.02-0.16,1.97-0.48,2.86c-0.32,0.89-0.79,1.66-1.39,2.32
			c-0.61,0.66-1.34,1.18-2.21,1.55c-0.87,0.37-1.84,0.56-2.92,0.56c-1.08,0-2.05-0.19-2.92-0.56c-0.87-0.37-1.61-0.89-2.21-1.55
			c-0.61-0.66-1.07-1.43-1.39-2.32c-0.32-0.88-0.48-1.84-0.48-2.86V66.6h1.35v11.43c0,0.86,0.13,1.67,0.39,2.41
			c0.26,0.75,0.63,1.39,1.11,1.94c0.48,0.55,1.08,0.98,1.78,1.29C165.96,83.99,166.76,84.15,167.64,84.15z"/>
		<path class="st0" d="M181.23,85.11h-1.35v-18.5h1.35V85.11z"/>
		<path class="st0" d="M200.97,66.61v18.5h-0.63c-0.11,0-0.21-0.02-0.28-0.06c-0.07-0.04-0.14-0.11-0.21-0.2l-12.02-16.06
			c0.03,0.26,0.04,0.51,0.04,0.75v15.57h-1.18v-18.5h0.67c0.12,0,0.21,0.02,0.28,0.05c0.07,0.03,0.14,0.1,0.21,0.2l11.99,16.02
			c-0.03-0.26-0.04-0.51-0.04-0.75V66.61H200.97L200.97,66.61z"/>
		<path class="st0" d="M222.02,75.85c0,1.43-0.21,2.71-0.64,3.86c-0.43,1.14-1.03,2.11-1.8,2.92c-0.78,0.8-1.71,1.42-2.79,1.84
			c-1.09,0.43-2.28,0.64-3.59,0.64h-6.76v-18.5h6.76c1.31,0,2.5,0.21,3.59,0.64c1.09,0.43,2.02,1.04,2.79,1.84
			c0.78,0.8,1.38,1.77,1.8,2.92C221.81,73.15,222.02,74.43,222.02,75.85z M220.63,75.85c0-1.29-0.18-2.44-0.54-3.45
			c-0.36-1.01-0.86-1.87-1.52-2.56c-0.65-0.7-1.44-1.23-2.36-1.59c-0.91-0.37-1.93-0.55-3.03-0.55h-5.41v16.33h5.41
			c1.11,0,2.12-0.18,3.03-0.55c0.92-0.37,1.7-0.9,2.36-1.59c0.65-0.7,1.16-1.55,1.52-2.56C220.46,78.3,220.63,77.15,220.63,75.85z"
			/>
		<path class="st0" d="M231.29,61.04L227,64.79c-0.08,0.07-0.16,0.11-0.23,0.13c-0.08,0.02-0.17,0.03-0.27,0.03h-0.85l3.37-3.62
			c0.11-0.12,0.21-0.2,0.32-0.23c0.11-0.04,0.27-0.05,0.48-0.05L231.29,61.04L231.29,61.04z M227.66,85.11h-1.35v-18.5h1.35V85.11z"
			/>
		<path class="st0" d="M249.55,75.85c0,1.43-0.21,2.73-0.64,3.89c-0.43,1.16-1.03,2.16-1.8,2.98c-0.78,0.82-1.71,1.46-2.79,1.91
			c-1.09,0.45-2.28,0.67-3.59,0.67s-2.5-0.22-3.58-0.67c-1.08-0.45-2.01-1.09-2.78-1.91s-1.38-1.82-1.8-2.98
			c-0.43-1.16-0.64-2.46-0.64-3.89c0-1.42,0.21-2.71,0.64-3.88c0.43-1.16,1.03-2.16,1.8-2.98c0.78-0.82,1.7-1.46,2.78-1.91
			c1.08-0.45,2.27-0.68,3.58-0.68s2.5,0.23,3.59,0.67c1.09,0.45,2.02,1.09,2.79,1.91c0.78,0.83,1.38,1.82,1.8,2.99
			C249.34,73.14,249.55,74.43,249.55,75.85z M248.17,75.85c0-1.29-0.18-2.45-0.54-3.48c-0.36-1.03-0.86-1.9-1.52-2.62
			c-0.65-0.71-1.44-1.26-2.36-1.64c-0.91-0.38-1.93-0.57-3.03-0.57c-1.1,0-2.11,0.19-3.02,0.57c-0.91,0.38-1.7,0.93-2.36,1.64
			c-0.66,0.71-1.17,1.59-1.53,2.62c-0.36,1.03-0.54,2.19-0.54,3.48c0,1.3,0.18,2.46,0.54,3.48c0.36,1.02,0.87,1.89,1.53,2.61
			c0.66,0.71,1.45,1.26,2.36,1.63c0.91,0.37,1.92,0.56,3.02,0.56c1.11,0,2.12-0.19,3.03-0.56c0.91-0.37,1.7-0.92,2.36-1.63
			c0.65-0.71,1.16-1.59,1.52-2.61C247.99,78.31,248.17,77.15,248.17,75.85z"/>
	</g>
	<g>
		<path class="st1" d="M32.1,35.69h-7.48c-1.89,0-3.42-1.53-3.42-3.42v-7.48c0-1.89,1.53-3.42,3.42-3.42h7.48
			c1.89,0,3.42,1.53,3.42,3.42v7.48C35.51,34.16,33.98,35.69,32.1,35.69z"/>
		<path class="st2" d="M32.1,78.44h-7.48c-1.89,0-3.42-1.53-3.42-3.42V46.17c0-1.89,1.53-3.42,3.42-3.42h7.48
			c1.89,0,3.42,1.53,3.42,3.42v28.85C35.51,76.91,33.98,78.44,32.1,78.44z"/>
		<path class="st2" d="M57.07,3.71v71.01c0,2.05-1.66,3.71-3.71,3.71h-6.89c-2.05,0-3.71-1.66-3.71-3.71v-56.7
			c0-2.05-1.66-3.71-3.71-3.71H3.71C1.66,14.31,0,12.65,0,10.6V3.71C0,1.66,1.66,0,3.71,0h49.64C55.41,0,57.07,1.66,57.07,3.71z"/>
		<path class="st2" d="M35.51,89.4v6.89c0,2.05-1.66,3.71-3.71,3.71H3.72c-2.05,0-3.71-1.66-3.71-3.71v-71.2
			c0-2.05,1.66-3.71,3.71-3.71h6.89c2.05,0,3.71,1.66,3.71,3.71v56.88c0,2.05,1.66,3.71,3.71,3.71H31.8
			C33.85,85.69,35.51,87.35,35.51,89.4z"/>
		<path class="st1" d="M67.88,99.98H46.09c-1.89,0-3.42-1.53-3.42-3.42v-7.48c0-1.89,1.53-3.42,3.42-3.42h21.79
			c1.89,0,3.42,1.53,3.42,3.42v7.48C71.3,98.45,69.77,99.98,67.88,99.98z"/>
	</g>
</g>
</svg>
